{"title":"Michael.Jackson.Thriller.1983.DVDRip.XviD-uN0","uid":9062346,"size":161481792,"categoryP":"video","categoryS":"music_videos","magnet":"?xt=urn:btih:9b3240397adf3a8e2bc8edd719dc1bbd98d1596d&amp;dn=Michael.Jackson.Thriller.1983.DVDRip.XviD-uN0&amp;tr=udp%3A%2F%2Ftracker.openbittorrent.com%3A80&amp;tr=udp%3A%2F%2Fopen.demonii.com%3A1337&amp;tr=udp%3A%2F%2Ftracker.coppersurfer.tk%3A6969&amp;tr=udp%3A%2F%2Fexodus.desync.com%3A6969","seeders":1,"leechers":1,"uploader":"B14CKB4R7","files":2,"time":1382055192,"description":"General\nComplete name                            : Michael.Jackson.Thriller.1983.DVDRip.XviD-uN0.avi\nFormat                                   : AVI\nFormat/Info                              : Audio Video Interleave\nFile size                                : 154 MiB\nDuration                                 : 13mn 38s\nOverall bit rate mode                    : Variable\nOverall bit rate                         : 1 579 Kbps\n\nVideo\nID                                       : 0\nFormat                                   : MPEG-4 Visual\nFormat profile                           : Advanced Simple@L5\nFormat settings, BVOP                    : 1\nFormat settings, QPel                    : No\nFormat settings, GMC                     : No warppoints\nFormat settings, Matrix                  : Custom\nCodec ID                                 : XVID\nCodec ID/Hint                            : XviD\nDuration                                 : 13mn 38s\nBit rate                                 : 1 314 Kbps\nWidth                                    : 608 pixels\nHeight                                   : 464 pixels\nDisplay aspect ratio                     : 4:3\nFrame rate                               : 25.000 fps\nColor space                              : YUV\nChroma subsampling                       : 4:2:0\nBit depth                                : 8 bits\nScan type                                : Progressive\nCompression mode                         : Lossy\nBits/(Pixel*Frame)                       : 0.186\nStream size                              : 128 MiB (83%)\nWriting library                          : XviD 1.2.1 (UTC 2008-12-04)\n\nAudio\nID                                       : 1\nFormat                                   : MPEG Audio\nFormat version                           : Version 1\nFormat profile                           : Layer 3\nMode                                     : Joint stereo\nMode extension                           : MS Stereo\nCodec ID                                 : 55\nCodec ID/Hint                            : MP3\nDuration                                 : 8mn 10s\nSource duration                          : 13mn 48s\nBit rate mode                            : Variable\nBit rate                                 : 247 Kbps\nChannel(s)                               : 2 channels\nSampling rate                            : 48.0 KHz\nCompression mode                         : Lossy\nStream size                              : 24.4 MiB (16%)\nAlignment                                : Aligned on interleaves\nInterleave, duration                     : 24 ms (0.60 video frame)\nWriting library                          : LAME3.98r\nEncoding settings                        : -m j -V 4 -q 2 -lowpass 19.7 --abr\n\n","torrent":{"xt":"urn:btih:9b3240397adf3a8e2bc8edd719dc1bbd98d1596d","amp;dn":"Michael.Jackson.Thriller.1983.DVDRip.XviD-uN0","amp;tr":["udp%3A%2F%2Ftracker.openbittorrent.com%3A80","udp%3A%2F%2Fopen.demonii.com%3A1337","udp%3A%2F%2Ftracker.coppersurfer.tk%3A6969","udp%3A%2F%2Fexodus.desync.com%3A6969"],"infoHash":"9b3240397adf3a8e2bc8edd719dc1bbd98d1596d","infoHashBuffer":{"type":"Buffer","data":[155,50,64,57,122,223,58,142,43,200,237,215,25,220,27,189,152,209,89,109]},"announce":[],"urlList":[]}}